<svg width="600" height="400" viewBox="0 0 600 400" fill="none" xmlns="http://www.w3.org/2000/svg">
  <!-- Background -->
  <rect width="600" height="400" fill="#E0F7F7"/>
  
  <!-- Main platform base -->
  <path d="M150 250 L450 250 L500 200 L200 200 Z" fill="#4FC3C3" stroke="#3BA8A8" stroke-width="2"/>
  
  <!-- Left side of platform -->
  <path d="M150 250 L200 200 L200 280 L150 330 Z" fill="#3BA8A8"/>
  
  <!-- Right side of platform -->
  <path d="M450 250 L500 200 L500 280 L450 330 Z" fill="#2D8A8A"/>
  
  <!-- Main platform top -->
  <path d="M150 250 L450 250 L450 330 L150 330 Z" fill="#5DD5D5"/>
  
  <!-- Mobile device left -->
  <rect x="80" y="280" width="60" height="100" rx="8" fill="#FFFFFF" stroke="#E5E5E5" stroke-width="2"/>
  <rect x="85" y="290" width="50" height="70" fill="#F8F9FA"/>
  <circle cx="110" cy="370" r="4" fill="#E5E5E5"/>
  
  <!-- Main dashboard screen -->
  <rect x="200" y="160" width="200" height="140" rx="12" fill="#FFFFFF" stroke="#E5E5E5" stroke-width="3" transform="rotate(-10 300 230)"/>
  <rect x="210" y="175" width="180" height="20" fill="#4FC3C3" transform="rotate(-10 300 185)"/>
  <rect x="210" y="205" width="80" height="8" fill="#E5E5E5" rx="4" transform="rotate(-10 250 209)"/>
  <rect x="210" y="220" width="120" height="8" fill="#E5E5E5" rx="4" transform="rotate(-10 270 224)"/>
  <rect x="210" y="235" width="60" height="8" fill="#E5E5E5" rx="4" transform="rotate(-10 240 239)"/>
  
  <!-- Payment cards -->
  <rect x="320" y="200" width="60" height="38" rx="6" fill="#2563EB" transform="rotate(-5 350 219)"/>
  <rect x="325" y="205" width="8" height="6" fill="#FFFFFF" rx="1" transform="rotate(-5 329 208)"/>
  <rect x="335" y="205" width="20" height="4" fill="#FFFFFF" rx="2" transform="rotate(-5 345 207)"/>
  
  <!-- Second card -->
  <rect x="340" y="220" width="60" height="38" rx="6" fill="#10B981" transform="rotate(5 370 239)"/>
  <rect x="345" y="225" width="8" height="6" fill="#FFFFFF" rx="1" transform="rotate(5 349 228)"/>
  <rect x="355" y="225" width="20" height="4" fill="#FFFFFF" rx="2" transform="rotate(5 365 227)"/>
  
  <!-- Mobile device right -->
  <rect x="460" y="280" width="60" height="100" rx="8" fill="#FFFFFF" stroke="#E5E5E5" stroke-width="2"/>
  <rect x="465" y="290" width="50" height="70" fill="#F8F9FA"/>
  <circle cx="490" cy="370" r="4" fill="#E5E5E5"/>
  
  <!-- Person figure -->
  <circle cx="380" cy="140" r="12" fill="#FBBF24"/>
  <rect x="375" y="150" width="10" height="20" fill="#EF4444" rx="2"/>
  <rect x="370" y="170" width="8" height="15" fill="#1F2937" rx="2"/>
  <rect x="382" y="170" width="8" height="15" fill="#1F2937" rx="2"/>
  <rect x="373" y="155" width="14" height="8" fill="#F3F4F6" rx="2"/>
  
  <!-- Floating elements -->
  <circle cx="120" cy="120" r="8" fill="#FFFFFF" stroke="#4FC3C3" stroke-width="2"/>
  <path d="M116 120 L120 124 L124 116" stroke="#4FC3C3" stroke-width="2" fill="none"/>
  
  <rect x="480" y="100" width="20" height="20" fill="#FFFFFF" stroke="#10B981" stroke-width="2" rx="4"/>
  <path d="M485 110 L490 105 L495 110" stroke="#10B981" stroke-width="2" fill="none"/>
  
  <!-- Chart element -->
  <rect x="50" y="180" width="40" height="30" fill="#FFFFFF" stroke="#E5E5E5" stroke-width="2" rx="4"/>
  <rect x="55" y="200" width="4" height="8" fill="#4FC3C3"/>
  <rect x="62" y="195" width="4" height="13" fill="#4FC3C3"/>
  <rect x="69" y="190" width="4" height="18" fill="#4FC3C3"/>
  <rect x="76" y="185" width="4" height="23" fill="#4FC3C3"/>
  
  <!-- Security shield -->
  <path d="M530 160 L540 150 L550 160 L540 180 Z" fill="#FFFFFF" stroke="#10B981" stroke-width="2"/>
  <circle cx="540" cy="165" r="3" fill="#10B981"/>
  
  <!-- Cloud elements -->
  <ellipse cx="100" cy="80" rx="15" ry="8" fill="#FFFFFF" opacity="0.8"/>
  <ellipse cx="110" cy="75" rx="12" ry="6" fill="#FFFFFF" opacity="0.8"/>
  <ellipse cx="90" cy="75" rx="10" ry="5" fill="#FFFFFF" opacity="0.8"/>
  
  <ellipse cx="520" cy="60" rx="18" ry="10" fill="#FFFFFF" opacity="0.8"/>
  <ellipse cx="535" cy="55" rx="15" ry="8" fill="#FFFFFF" opacity="0.8"/>
  <ellipse cx="505" cy="55" rx="12" ry="6" fill="#FFFFFF" opacity="0.8"/>
  
  <!-- Payment flow lines -->
  <path d="M140 300 Q200 280 260 290" stroke="#4FC3C3" stroke-width="3" fill="none" stroke-dasharray="5,5"/>
  <path d="M340 290 Q400 280 460 300" stroke="#4FC3C3" stroke-width="3" fill="none" stroke-dasharray="5,5"/>
  
  <!-- Additional decorative elements -->
  <rect x="70" y="320" width="12" height="12" fill="#FFFFFF" stroke="#10B981" stroke-width="2" rx="2" transform="rotate(45 76 326)"/>
  <rect x="520" y="320" width="12" height="12" fill="#FFFFFF" stroke="#2563EB" stroke-width="2" rx="2" transform="rotate(45 526 326)"/>
</svg>
